<?xml version="1.0" encoding="UTF-8" standalone="no"?>
<!DOCTYPE svg PUBLIC "-//W3C//DTD SVG 1.1//EN"
 "http://www.w3.org/Graphics/SVG/1.1/DTD/svg11.dtd">
<!-- Generated by graphviz version 2.47.0 (20210316.0004)
 -->
<!-- Title: dependencies Pages: 1 -->
<svg width="582pt" height="211pt"
 viewBox="0.00 0.00 582.00 211.00" xmlns="http://www.w3.org/2000/svg" xmlns:xlink="http://www.w3.org/1999/xlink">
<g id="graph0" class="graph" transform="scale(1 1) rotate(0) translate(4 207)">
<title>dependencies</title>
<polygon fill="white" stroke="transparent" points="-4,4 -4,-207 578,-207 578,4 -4,4"/>
<text text-anchor="start" x="266.01" y="-42.4" font-family="Times-12" font-weight="bold" font-size="14.00">Legend</text>
<polygon fill="#ffffb3" stroke="transparent" points="53,-10 53,-30 73,-30 73,-10 53,-10"/>
<text text-anchor="start" x="76.63" y="-15.4" font-family="Times-12" font-size="14.00"> &#160;Declarations</text>
<polygon fill="#8dd3c7" stroke="transparent" points="166,-10 166,-30 186,-30 186,-10 166,-10"/>
<text text-anchor="start" x="189.73" y="-15.4" font-family="Times-12" font-size="14.00"> &#160;Module</text>
<polygon fill="#80b1d3" stroke="transparent" points="252,-10 252,-30 272,-30 272,-10 252,-10"/>
<text text-anchor="start" x="275.78" y="-15.4" font-family="Times-12" font-size="14.00"> &#160;Bootstrap</text>
<polygon fill="#fdb462" stroke="transparent" points="349,-10 349,-30 369,-30 369,-10 349,-10"/>
<text text-anchor="start" x="372.67" y="-15.4" font-family="Times-12" font-size="14.00"> &#160;Providers</text>
<polygon fill="#fb8072" stroke="transparent" points="445,-10 445,-30 465,-30 465,-10 445,-10"/>
<text text-anchor="start" x="468.73" y="-15.4" font-family="Times-12" font-size="14.00"> &#160;Exports</text>
<g id="clust1" class="cluster">
<title>cluster_CustomerModule</title>
<polygon fill="none" stroke="black" stroke-dasharray="1,5" points="8,-70 8,-195 200,-195 200,-70 8,-70"/>
</g>
<g id="clust3" class="cluster">
<title>cluster_CustomerModule_imports</title>
<polygon fill="none" stroke="black" points="16,-78 16,-130 192,-130 192,-78 16,-78"/>
</g>
<g id="clust13" class="cluster">
<title>cluster_OrderModule</title>
<polygon fill="none" stroke="black" stroke-dasharray="1,5" points="208,-70 208,-195 378,-195 378,-70 208,-70"/>
</g>
<g id="clust15" class="cluster">
<title>cluster_OrderModule_imports</title>
<polygon fill="none" stroke="black" points="216,-78 216,-130 370,-130 370,-78 216,-78"/>
</g>
<g id="clust25" class="cluster">
<title>cluster_ProductModule</title>
<polygon fill="none" stroke="black" stroke-dasharray="1,5" points="386,-70 386,-195 566,-195 566,-70 386,-70"/>
</g>
<g id="clust27" class="cluster">
<title>cluster_ProductModule_imports</title>
<polygon fill="none" stroke="black" points="394,-78 394,-130 558,-130 558,-78 394,-78"/>
</g>
<!-- CustomerRoutingModule -->
<g id="node1" class="node">
<title>CustomerRoutingModule</title>
<polygon fill="#8dd3c7" stroke="black" points="183.61,-122 180.61,-126 159.61,-126 156.61,-122 24.39,-122 24.39,-86 183.61,-86 183.61,-122"/>
<text text-anchor="middle" x="104" y="-99.8" font-family="Times,serif" font-size="14.00">CustomerRoutingModule</text>
</g>
<!-- CustomerModule -->
<g id="node2" class="node">
<title>CustomerModule</title>
<polygon fill="#8dd3c7" stroke="black" points="160.99,-187 157.99,-191 136.99,-191 133.99,-187 47.01,-187 47.01,-151 160.99,-151 160.99,-187"/>
<text text-anchor="middle" x="104" y="-164.8" font-family="Times,serif" font-size="14.00">CustomerModule</text>
</g>
<!-- CustomerRoutingModule&#45;&gt;CustomerModule -->
<g id="edge1" class="edge">
<title>CustomerRoutingModule&#45;&gt;CustomerModule</title>
<path fill="none" stroke="black" d="M104,-122.11C104,-122.11 104,-140.99 104,-140.99"/>
<polygon fill="black" stroke="black" points="100.5,-140.99 104,-150.99 107.5,-140.99 100.5,-140.99"/>
</g>
<!-- OrderRoutingModule -->
<g id="node3" class="node">
<title>OrderRoutingModule</title>
<polygon fill="#8dd3c7" stroke="black" points="361.81,-122 358.81,-126 337.81,-126 334.81,-122 224.19,-122 224.19,-86 361.81,-86 361.81,-122"/>
<text text-anchor="middle" x="293" y="-99.8" font-family="Times,serif" font-size="14.00">OrderRoutingModule</text>
</g>
<!-- OrderModule -->
<g id="node4" class="node">
<title>OrderModule</title>
<polygon fill="#8dd3c7" stroke="black" points="339.19,-187 336.19,-191 315.19,-191 312.19,-187 246.81,-187 246.81,-151 339.19,-151 339.19,-187"/>
<text text-anchor="middle" x="293" y="-164.8" font-family="Times,serif" font-size="14.00">OrderModule</text>
</g>
<!-- OrderRoutingModule&#45;&gt;OrderModule -->
<g id="edge2" class="edge">
<title>OrderRoutingModule&#45;&gt;OrderModule</title>
<path fill="none" stroke="black" d="M293,-122.11C293,-122.11 293,-140.99 293,-140.99"/>
<polygon fill="black" stroke="black" points="289.5,-140.99 293,-150.99 296.5,-140.99 289.5,-140.99"/>
</g>
<!-- ProductRoutingModule -->
<g id="node5" class="node">
<title>ProductRoutingModule</title>
<polygon fill="#8dd3c7" stroke="black" points="550.22,-122 547.22,-126 526.22,-126 523.22,-122 401.78,-122 401.78,-86 550.22,-86 550.22,-122"/>
<text text-anchor="middle" x="476" y="-99.8" font-family="Times,serif" font-size="14.00">ProductRoutingModule</text>
</g>
<!-- ProductModule -->
<g id="node6" class="node">
<title>ProductModule</title>
<polygon fill="#8dd3c7" stroke="black" points="527.6,-187 524.6,-191 503.6,-191 500.6,-187 424.4,-187 424.4,-151 527.6,-151 527.6,-187"/>
<text text-anchor="middle" x="476" y="-164.8" font-family="Times,serif" font-size="14.00">ProductModule</text>
</g>
<!-- ProductRoutingModule&#45;&gt;ProductModule -->
<g id="edge3" class="edge">
<title>ProductRoutingModule&#45;&gt;ProductModule</title>
<path fill="none" stroke="black" d="M476,-122.11C476,-122.11 476,-140.99 476,-140.99"/>
<polygon fill="black" stroke="black" points="472.5,-140.99 476,-150.99 479.5,-140.99 472.5,-140.99"/>
</g>
</g>
</svg>
